<svg xmlns="http://www.w3.org/2000/svg" version="1.1" xmlns:xlink="http://www.w3.org/1999/xlink" xmlns:svgjs="http://svgjs.dev/svgjs" width="1000" height="1000" viewBox="0 0 1000 1000"><rect width="1000" height="1000" fill="#ffffff"></rect><g transform="matrix(0.7,0,0,0.7,149.57576470076282,403.7524339957898)"><svg viewBox="0 0 396 109" data-background-color="#ffffff" preserveAspectRatio="xMidYMid meet" height="275" width="1000" xmlns="http://www.w3.org/2000/svg" xmlns:xlink="http://www.w3.org/1999/xlink"><g id="tight-bounds" transform="matrix(1,0,0,1,0.23999596928274514,-0.001378210603036223)"><svg viewBox="0 0 395.52 109.00275642120606" height="109.00275642120606" width="395.52"><g><svg viewBox="0 0 583.6442332004003 160.84857956155145" height="109.00275642120606" width="395.52"><g transform="matrix(1,0,0,1,188.1242332004004,22.23015824620574)"><svg viewBox="0 0 395.52 116.38826306913997" height="116.38826306913997" width="395.52"><g id="textblocktransform"><svg viewBox="0 0 395.52 116.38826306913997" height="116.38826306913997" width="395.52" id="textblock"><g><svg viewBox="0 0 395.52 116.38826306913997" height="116.38826306913997" width="395.52"><g transform="matrix(1,0,0,1,0,0)"><svg width="395.52" viewBox="3.6500000953674316 -25.780000686645508 118.58999633789062 34.90999984741211" height="116.38826306913997" data-palette-color="#ee3e38"><path d="M8.1 8.58L3.65 8.58 3.65-25.33 6.3-25.33Q7.25-25.33 7.5-24.4L7.5-24.4 7.88-21.4Q9.5-23.38 11.59-24.58 13.68-25.78 16.4-25.78L16.4-25.78Q18.57-25.78 20.35-24.94 22.13-24.1 23.38-22.46 24.63-20.83 25.3-18.4 25.98-15.98 25.98-12.83L25.98-12.83Q25.98-10.03 25.23-7.61 24.48-5.2 23.08-3.44 21.68-1.68 19.64-0.66 17.6 0.35 15.05 0.35L15.05 0.35Q12.7 0.35 11.04-0.43 9.38-1.2 8.1-2.63L8.1-2.63 8.1 8.58ZM14.93-22.18L14.93-22.18Q12.75-22.18 11.11-21.18 9.47-20.18 8.1-18.35L8.1-18.35 8.1-6.1Q9.33-4.45 10.79-3.78 12.25-3.1 14.05-3.1L14.05-3.1Q17.57-3.1 19.48-5.63 21.38-8.15 21.38-12.83L21.38-12.83Q21.38-15.3 20.94-17.07 20.5-18.85 19.68-19.99 18.85-21.13 17.65-21.65 16.45-22.18 14.93-22.18ZM49.85-16.2L49.85 0 47.87 0Q47.22 0 46.82-0.2 46.42-0.4 46.3-1.05L46.3-1.05 45.8-3.4Q44.8-2.5 43.85-1.79 42.9-1.07 41.85-0.59 40.8-0.1 39.61 0.15 38.42 0.4 36.97 0.4L36.97 0.4Q35.5 0.4 34.21-0.01 32.92-0.43 31.97-1.25 31.02-2.08 30.46-3.34 29.9-4.6 29.9-6.33L29.9-6.33Q29.9-7.83 30.72-9.21 31.55-10.6 33.38-11.68 35.22-12.75 38.2-13.44 41.17-14.13 45.47-14.23L45.47-14.23 45.47-16.2Q45.47-19.15 44.21-20.66 42.95-22.18 40.47-22.18L40.47-22.18Q38.85-22.18 37.73-21.76 36.62-21.35 35.81-20.84 35-20.33 34.41-19.91 33.82-19.5 33.25-19.5L33.25-19.5Q32.8-19.5 32.46-19.74 32.12-19.98 31.92-20.33L31.92-20.33 31.12-21.75Q33.22-23.78 35.65-24.78 38.07-25.78 41.02-25.78L41.02-25.78Q43.15-25.78 44.8-25.08 46.45-24.38 47.57-23.13 48.7-21.88 49.27-20.1 49.85-18.32 49.85-16.2L49.85-16.2ZM38.3-2.73L38.3-2.73Q39.47-2.73 40.45-2.96 41.42-3.2 42.28-3.64 43.15-4.08 43.94-4.7 44.72-5.33 45.47-6.13L45.47-6.13 45.47-11.4Q42.4-11.3 40.25-10.91 38.1-10.53 36.75-9.9 35.4-9.28 34.78-8.43 34.17-7.58 34.17-6.53L34.17-6.53Q34.17-5.53 34.5-4.8 34.82-4.08 35.37-3.61 35.92-3.15 36.67-2.94 37.42-2.73 38.3-2.73ZM61.05 0L56.6 0 56.6-25.33 59.15-25.33Q59.87-25.33 60.15-25.05 60.42-24.78 60.52-24.1L60.52-24.1 60.82-20.15Q62.12-22.8 64.03-24.29 65.95-25.78 68.52-25.78L68.52-25.78Q69.57-25.78 70.42-25.54 71.27-25.3 72-24.88L72-24.88 71.42-21.55Q71.25-20.93 70.65-20.93L70.65-20.93Q70.3-20.93 69.57-21.16 68.85-21.4 67.55-21.4L67.55-21.4Q65.22-21.4 63.66-20.05 62.1-18.7 61.05-16.13L61.05-16.13 61.05 0ZM94.39-16.2L94.39 0 92.42 0Q91.77 0 91.37-0.2 90.97-0.4 90.84-1.05L90.84-1.05 90.34-3.4Q89.34-2.5 88.39-1.79 87.44-1.07 86.39-0.59 85.34-0.1 84.16 0.15 82.97 0.4 81.52 0.4L81.52 0.4Q80.04 0.4 78.76-0.01 77.47-0.43 76.52-1.25 75.57-2.08 75.01-3.34 74.44-4.6 74.44-6.33L74.44-6.33Q74.44-7.83 75.27-9.21 76.09-10.6 77.93-11.68 79.77-12.75 82.74-13.44 85.72-14.13 90.02-14.23L90.02-14.23 90.02-16.2Q90.02-19.15 88.76-20.66 87.49-22.18 85.02-22.18L85.02-22.18Q83.39-22.18 82.28-21.76 81.17-21.35 80.36-20.84 79.54-20.33 78.96-19.91 78.37-19.5 77.79-19.5L77.79-19.5Q77.34-19.5 77.01-19.74 76.67-19.98 76.47-20.33L76.47-20.33 75.67-21.75Q77.77-23.78 80.19-24.78 82.62-25.78 85.57-25.78L85.57-25.78Q87.69-25.78 89.34-25.08 90.99-24.38 92.12-23.13 93.24-21.88 93.82-20.1 94.39-18.32 94.39-16.2L94.39-16.2ZM82.84-2.73L82.84-2.73Q84.02-2.73 84.99-2.96 85.97-3.2 86.83-3.64 87.69-4.08 88.48-4.7 89.27-5.33 90.02-6.13L90.02-6.13 90.02-11.4Q86.94-11.3 84.79-10.91 82.64-10.53 81.29-9.9 79.94-9.28 79.33-8.43 78.72-7.58 78.72-6.53L78.72-6.53Q78.72-5.53 79.04-4.8 79.37-4.08 79.92-3.61 80.47-3.15 81.22-2.94 81.97-2.73 82.84-2.73ZM109.67-25.75L109.67-25.75Q111.32-25.75 112.75-25.39 114.19-25.03 115.37-24.33L115.37-24.33 122.24-24.33 122.24-22.68Q122.24-21.85 121.19-21.63L121.19-21.63 118.32-21.23Q119.17-19.6 119.17-17.6L119.17-17.6Q119.17-15.75 118.45-14.24 117.74-12.73 116.48-11.65 115.22-10.58 113.48-10 111.74-9.43 109.67-9.43L109.67-9.43Q107.89-9.43 106.32-9.85L106.32-9.85Q105.52-9.35 105.1-8.78 104.69-8.2 104.69-7.65L104.69-7.65Q104.69-6.75 105.42-6.29 106.14-5.83 107.34-5.63 108.54-5.43 110.07-5.38 111.59-5.33 113.18-5.21 114.77-5.1 116.29-4.83 117.82-4.55 119.02-3.93 120.22-3.3 120.94-2.2 121.67-1.1 121.67 0.65L121.67 0.65Q121.67 2.27 120.85 3.8 120.04 5.33 118.52 6.51 116.99 7.7 114.79 8.41 112.59 9.13 109.82 9.13L109.82 9.13Q107.04 9.13 104.95 8.58 102.87 8.03 101.49 7.1 100.12 6.18 99.43 4.96 98.74 3.75 98.74 2.43L98.74 2.43Q98.74 0.55 99.93-0.76 101.12-2.08 103.19-2.85L103.19-2.85Q102.12-3.35 101.48-4.19 100.84-5.03 100.84-6.43L100.84-6.43Q100.84-6.98 101.04-7.56 101.24-8.15 101.65-8.72 102.07-9.3 102.67-9.83 103.27-10.35 104.07-10.75L104.07-10.75Q102.19-11.8 101.13-13.54 100.07-15.28 100.07-17.6L100.07-17.6Q100.07-19.45 100.78-20.96 101.49-22.48 102.77-23.54 104.04-24.6 105.8-25.18 107.57-25.75 109.67-25.75ZM117.57 1.38L117.57 1.38Q117.57 0.43 117.04-0.15 116.52-0.73 115.62-1.04 114.72-1.35 113.54-1.5 112.37-1.65 111.07-1.71 109.77-1.78 108.42-1.85 107.07-1.93 105.84-2.13L105.84-2.13Q104.42-1.45 103.53-0.48 102.64 0.5 102.64 1.85L102.64 1.85Q102.64 2.7 103.08 3.44 103.52 4.17 104.42 4.71 105.32 5.25 106.68 5.56 108.04 5.88 109.89 5.88L109.89 5.88Q111.69 5.88 113.12 5.55 114.54 5.23 115.53 4.63 116.52 4.03 117.04 3.2 117.57 2.38 117.57 1.38ZM109.67-12.38L109.67-12.38Q111.02-12.38 112.05-12.75 113.09-13.13 113.79-13.8 114.49-14.48 114.84-15.41 115.19-16.35 115.19-17.48L115.19-17.48Q115.19-19.8 113.78-21.18 112.37-22.55 109.67-22.55L109.67-22.55Q106.99-22.55 105.58-21.18 104.17-19.8 104.17-17.48L104.17-17.48Q104.17-16.35 104.53-15.41 104.89-14.48 105.59-13.8 106.29-13.13 107.32-12.75 108.34-12.38 109.67-12.38Z" opacity="1" transform="matrix(1,0,0,1,0,0)" fill="#000000" class="undefined-text-0" data-fill-palette-color="primary" id="text-0"></path></svg></g></svg></g></svg></g></svg></g><g><svg viewBox="0 0 160.6477576080901 160.84857956155145" height="160.84857956155145" width="160.6477576080901"><g><svg xmlns="http://www.w3.org/2000/svg" xmlns:xlink="http://www.w3.org/1999/xlink" version="1.1" x="0" y="0" viewBox="4.399993896484375 4.899993896484375 80 80.10000610351562" enable-background="new 0 0 90 90" xml:space="preserve" height="160.84857956155145" width="160.6477576080901" class="icon-icon-0" data-fill-palette-color="accent" id="icon-0"><path d="M81.6 59.6c0-0.1 0-0.1 0.1-0.2 1.6-4.2 2.6-8.8 2.7-13.6 0 0 0 0 0 0l0 0c0-0.3 0-0.6 0-0.9 0-22.1-17.9-40-40-40s-40 17.9-40 40c0 4.6 0.8 9 2.2 13.1l0 0c0 0 0 0 0 0C12 73.7 26.9 85 44.4 85c16.1 0 30-9.6 36.4-23.3 0-0.1 0.1-0.1 0.1-0.2C81.1 60.9 81.4 60.3 81.6 59.6zM77.9 45.9v-1.1h-1.1v1.1h-2.5v-1.1h-1.1v1.1h-2.5v-1.1h-1.1v1.1h-2.9v2.9H48.4v-4.7H56 57V43v-2.6c0.7-0.2 1.3-0.7 1.6-1.4h17.9c0.3 1.2 1.3 2.2 2.5 2.4 0.1 1.2 0.2 2.3 0.2 3.5 0 0.3 0 0.6 0 0.9H77.9zM44.4 10.1c15.9 0 29.3 10.7 33.5 25.2-0.1 0.1-0.2 0.1-0.3 0.2l-6.9-6.7v-0.3h-0.3l0 0 0 0H48.8V22h-5.4v6.5h-2.5V22h-5.4v6.5h-2.5V22h-5.4v6.5h-5.1c-0.2-1-1.2-1.8-2.3-1.8-1.3 0-2.3 1.1-2.3 2.4 0 1.1 0.8 2 1.8 2.3v2.2 1.1h1.1 18.8c0.2 1 1.2 1.8 2.3 1.8 1.3 0 2.3-1.1 2.3-2.4s-1-2.4-2.3-2.4c-1.1 0-2 0.8-2.3 1.8H20.7v-2.2c0.9-0.2 1.5-0.9 1.7-1.7h31.4V32h13.3v-2.4H70l7 6.7c-0.3 0.5-0.5 1-0.5 1.6H58.8c-0.1-1.2-1.1-2.2-2.3-2.2-1.3 0-2.3 1.1-2.3 2.4 0 1.1 0.8 2 1.8 2.3V43H38.3c-0.3-3.6-3.3-6.5-7-6.5-3.7 0-6.7 2.9-7 6.5h-1.8v-1.4-0.4-0.7h-3.6v-1.8h-8.6v4h8.6v-1.1h2.5V43v1.1 1.8h-2.5v-1.1h-8.6v4h8.6V47h3.6v-1.1-1.8h1.8c0.3 3.6 3.3 6.5 7 6.5 3.7 0 6.7-2.9 7-6.5h9v4.7 1.1h1.1 18.3v4.3H44.1C44 52.4 42.5 51 40.7 51c-1.8 0-3.3 1.4-3.4 3.2H23.9c-0.2-1-1.2-1.8-2.3-1.8-1.3 0-2.3 1.1-2.3 2.4s1 2.4 2.3 2.4c1.1 0 2-0.8 2.3-1.8h13.5c0.4 1.5 1.7 2.5 3.3 2.5 1.6 0 2.9-1.1 3.3-2.5h7v2h2.5v-2h13.3v4.3h-54c-2.1-4.5-3.2-9.4-3.2-14.7C9.5 25.7 25.1 10.1 44.4 10.1zM44.4 79.9c-13.6 0-25.4-7.8-31.1-19.2h29.4v6.4H48v-6.4h2.2v6.4h5.4v-6.4h2.2v6.4h5.4v-6.4h3.6v2.9h2.9v1.1h1.1v-1.1h2.5v1C66.9 73.8 56.4 79.9 44.4 79.9z" fill="#000000" data-fill-palette-color="accent"></path></svg></g></svg></g></svg></g><defs></defs></svg><rect width="395.52" height="109.00275642120606" fill="none" stroke="none" visibility="hidden"></rect></g></svg></g></svg>