<?xml version="1.0" encoding="UTF-8"?>
<svg version="1.1" viewBox="0 0 1000 275" xmlns="http://www.w3.org/2000/svg">
    <g transform="translate(-.60605 .0034771)">
        <svg width="1e3" height="275" data-background-color="#ffffff" viewBox="0 0 396 109"
            xmlns="http://www.w3.org/2000/svg" xmlns:xlink="http://www.w3.org/1999/xlink">
            <g transform="translate(.24 -.0013782)">
                <svg width="395.52" height="109" viewBox="0 0 395.52 109.00275642120606">
                    <svg width="395.52" height="109"
                        viewBox="0 0 583.6442332004003 160.84857956155145">
                        <g transform="translate(188.12 22.23)">
                            <svg width="395.52" height="116.39"
                                viewBox="0 0 395.52 116.38826306913997">
                                <svg width="395.52" height="116.39"
                                    viewBox="0 0 395.52 116.38826306913997">
                                    <svg width="395.52" height="116.39"
                                        viewBox="0 0 395.52 116.38826306913997">
                                        <g>
                                            <svg width="395.52" height="116.39"
                                                data-palette-color="#ee3e38"
                                                viewBox="3.6500000953674316 -25.780000686645508 118.58999633789062 34.90999984741211">
                                                <path class="undefined-text-0"
                                                    d="m8.1 8.58h-4.45v-33.91h2.65q0.95 0 1.2 0.93l0.38 3q1.62-1.98 3.71-3.18t4.81-1.2q2.17 0 3.95 0.84t3.03 2.48q1.25 1.63 1.92 4.06 0.68 2.42 0.68 5.57 0 2.8-0.75 5.22-0.75 2.41-2.15 4.17t-3.44 2.78q-2.04 1.01-4.59 1.01-2.35 0-4.01-0.78-1.66-0.77-2.94-2.2v11.21zm6.83-30.76q-2.18 0-3.82 1t-3.01 2.83v12.25q1.23 1.65 2.69 2.32 1.46 0.68 3.26 0.68 3.52 0 5.43-2.53 1.9-2.52 1.9-7.2 0-2.47-0.44-4.24-0.44-1.78-1.26-2.92-0.83-1.14-2.03-1.66-1.2-0.53-2.72-0.53zm34.92 5.98v16.2h-1.98q-0.65 0-1.05-0.2t-0.52-0.85l-0.5-2.35q-1 0.9-1.95 1.61-0.95 0.72-2 1.2-1.05 0.49-2.24 0.74t-2.64 0.25q-1.47 0-2.76-0.41-1.29-0.42-2.24-1.24-0.95-0.83-1.51-2.09t-0.56-2.99q0-1.5 0.82-2.88 0.83-1.39 2.66-2.47 1.84-1.07 4.82-1.76 2.97-0.69 7.27-0.79v-1.97q0-2.95-1.26-4.46-1.26-1.52-3.74-1.52-1.62 0-2.74 0.42-1.11 0.41-1.92 0.92t-1.4 0.93q-0.59 0.41-1.16 0.41-0.45 0-0.79-0.24t-0.54-0.59l-0.8-1.42q2.1-2.03 4.53-3.03 2.42-1 5.37-1 2.13 0 3.78 0.7t2.77 1.95q1.13 1.25 1.7 3.03 0.58 1.78 0.58 3.9zm-11.55 13.47q1.17 0 2.15-0.23 0.97-0.24 1.83-0.68 0.87-0.44 1.66-1.06 0.78-0.63 1.53-1.43v-5.27q-3.07 0.1-5.22 0.49-2.15 0.38-3.5 1.01-1.35 0.62-1.97 1.47-0.61 0.85-0.61 1.9 0 1 0.33 1.73 0.32 0.72 0.87 1.19 0.55 0.46 1.3 0.67t1.63 0.21zm22.75 2.73h-4.45v-25.33h2.55q0.72 0 1 0.28 0.27 0.27 0.37 0.95l0.3 3.95q1.3-2.65 3.21-4.14 1.92-1.49 4.49-1.49 1.05 0 1.9 0.24t1.58 0.66l-0.58 3.33q-0.17 0.62-0.77 0.62-0.35 0-1.08-0.23-0.72-0.24-2.02-0.24-2.33 0-3.89 1.35t-2.61 3.92v16.13zm33.34-16.2v16.2h-1.97q-0.65 0-1.05-0.2t-0.53-0.85l-0.5-2.35q-1 0.9-1.95 1.61-0.95 0.72-2 1.2-1.05 0.49-2.23 0.74-1.19 0.25-2.64 0.25-1.48 0-2.76-0.41-1.29-0.42-2.24-1.24-0.95-0.83-1.51-2.09-0.57-1.26-0.57-2.99 0-1.5 0.83-2.88 0.82-1.39 2.66-2.47 1.84-1.07 4.81-1.76 2.98-0.69 7.28-0.79v-1.97q0-2.95-1.26-4.46-1.27-1.52-3.74-1.52-1.63 0-2.74 0.42-1.11 0.41-1.92 0.92-0.82 0.51-1.4 0.93-0.59 0.41-1.17 0.41-0.45 0-0.78-0.24-0.34-0.24-0.54-0.59l-0.8-1.42q2.1-2.03 4.52-3.03 2.43-1 5.38-1 2.12 0 3.77 0.7t2.78 1.95q1.12 1.25 1.7 3.03 0.57 1.78 0.57 3.9zm-11.55 13.47q1.18 0 2.15-0.23 0.98-0.24 1.84-0.68t1.65-1.06q0.79-0.63 1.54-1.43v-5.27q-3.08 0.1-5.23 0.49-2.15 0.38-3.5 1.01-1.35 0.62-1.96 1.47t-0.61 1.9q0 1 0.32 1.73 0.33 0.72 0.88 1.19 0.55 0.46 1.3 0.67t1.62 0.21zm26.83-23.02q1.65 0 3.08 0.36 1.44 0.36 2.62 1.06h6.87v1.65q0 0.83-1.05 1.05l-2.87 0.4q0.85 1.63 0.85 3.63 0 1.85-0.72 3.36-0.71 1.51-1.97 2.59-1.26 1.07-3 1.65-1.74 0.57-3.81 0.57-1.78 0-3.35-0.42-0.8 0.5-1.22 1.07-0.41 0.58-0.41 1.13 0 0.9 0.73 1.36 0.72 0.46 1.92 0.66t2.73 0.25q1.52 0.05 3.11 0.17 1.59 0.11 3.11 0.38 1.53 0.28 2.73 0.9 1.2 0.63 1.92 1.73 0.73 1.1 0.73 2.85 0 1.62-0.82 3.15-0.81 1.53-2.33 2.71-1.53 1.19-3.73 1.9-2.2 0.72-4.97 0.72-2.78 0-4.87-0.55-2.08-0.55-3.46-1.48-1.37-0.92-2.06-2.14-0.69-1.21-0.69-2.53 0-1.88 1.19-3.19 1.19-1.32 3.26-2.09-1.07-0.5-1.71-1.34t-0.64-2.24q0-0.55 0.2-1.13 0.2-0.59 0.61-1.16 0.42-0.58 1.02-1.11 0.6-0.52 1.4-0.92-1.88-1.05-2.94-2.79t-1.06-4.06q0-1.85 0.71-3.36 0.71-1.52 1.99-2.58 1.27-1.06 3.03-1.64 1.77-0.57 3.87-0.57zm7.9 27.13q0-0.95-0.53-1.53-0.52-0.58-1.42-0.89t-2.08-0.46q-1.17-0.15-2.47-0.21-1.3-0.07-2.65-0.14-1.35-0.08-2.58-0.28-1.42 0.68-2.31 1.65-0.89 0.98-0.89 2.33 0 0.85 0.44 1.59 0.44 0.73 1.34 1.27t2.26 0.85q1.36 0.32 3.21 0.32 1.8 0 3.23-0.33 1.42-0.32 2.41-0.92t1.51-1.43q0.53-0.82 0.53-1.82zm-7.9-13.76q1.35 0 2.38-0.37 1.04-0.38 1.74-1.05 0.7-0.68 1.05-1.61 0.35-0.94 0.35-2.07 0-2.32-1.41-3.7-1.41-1.37-4.11-1.37-2.68 0-4.09 1.37-1.41 1.38-1.41 3.7 0 1.13 0.36 2.07 0.36 0.93 1.06 1.61 0.7 0.67 1.73 1.05 1.02 0.37 2.35 0.37z"
                                                    fill="#ee3e38" data-fill-palette-color="primary" />
                                            </svg>
                                        </g>
                                    </svg>
                                </svg>
                            </svg>
                        </g>
                        <svg width="160.65" height="160.85"
                            viewBox="0 0 160.6477576080901 160.84857956155145">
                            <svg class="icon-icon-0" width="160.65" height="160.85"
                                enable-background="new 0 0 90 90" data-fill-palette-color="accent"
                                version="1.1"
                                viewBox="4.399993896484375 4.899993896484375 80 80.10000610351562"
                                xml:space="preserve" xmlns="http://www.w3.org/2000/svg"
                                xmlns:xlink="http://www.w3.org/1999/xlink"><path d="m81.6 59.6c0-0.1 0-0.1 0.1-0.2 1.6-4.2 2.6-8.8 2.7-13.6v-0.9c0-22.1-17.9-40-40-40s-40 17.9-40 40c0 4.6 0.8 9 2.2 13.1 5.4 15.7 20.3 27 37.8 27 16.1 0 30-9.6 36.4-23.3 0-0.1 0.1-0.1 0.1-0.2 0.2-0.6 0.5-1.2 0.7-1.9zm-3.7-13.7v-1.1h-1.1v1.1h-2.5v-1.1h-1.1v1.1h-2.5v-1.1h-1.1v1.1h-2.9v2.9h-18.3v-4.7h8.6v-3.7c0.7-0.2 1.3-0.7 1.6-1.4h17.9c0.3 1.2 1.3 2.2 2.5 2.4 0.1 1.2 0.2 2.3 0.2 3.5v0.9h-1.3zm-33.5-35.8c15.9 0 29.3 10.7 33.5 25.2-0.1 0.1-0.2 0.1-0.3 0.2l-6.9-6.7v-0.3h-21.9v-6.5h-5.4v6.5h-2.5v-6.5h-5.4v6.5h-2.5v-6.5h-5.4v6.5h-5.1c-0.2-1-1.2-1.8-2.3-1.8-1.3 0-2.3 1.1-2.3 2.4 0 1.1 0.8 2 1.8 2.3v3.3h19.9c0.2 1 1.2 1.8 2.3 1.8 1.3 0 2.3-1.1 2.3-2.4s-1-2.4-2.3-2.4c-1.1 0-2 0.8-2.3 1.8h-18.9v-2.2c0.9-0.2 1.5-0.9 1.7-1.7h31.4v2.4h13.3v-2.4h2.9l7 6.7c-0.3 0.5-0.5 1-0.5 1.6h-17.7c-0.1-1.2-1.1-2.2-2.3-2.2-1.3 0-2.3 1.1-2.3 2.4 0 1.1 0.8 2 1.8 2.3v2.6h-17.7c-0.3-3.6-3.3-6.5-7-6.5s-6.7 2.9-7 6.5h-1.8v-2.5h-3.6v-1.8h-8.6v4h8.6v-1.1h2.5v4.3h-2.5v-1.1h-8.6v4h8.6v-1.8h3.6v-2.9h1.8c0.3 3.6 3.3 6.5 7 6.5s6.7-2.9 7-6.5h9v5.8h19.4v4.3h-22.6c-0.1-1.8-1.6-3.2-3.4-3.2s-3.3 1.4-3.4 3.2h-13.4c-0.2-1-1.2-1.8-2.3-1.8-1.3 0-2.3 1.1-2.3 2.4s1 2.4 2.3 2.4c1.1 0 2-0.8 2.3-1.8h13.5c0.4 1.5 1.7 2.5 3.3 2.5s2.9-1.1 3.3-2.5h7v2h2.5v-2h13.3v4.3h-54c-2.1-4.5-3.2-9.4-3.2-14.7-0.1-19.3 15.5-34.9 34.8-34.9zm0 69.8c-13.6 0-25.4-7.8-31.1-19.2h29.4v6.4h5.3v-6.4h2.2v6.4h5.4v-6.4h2.2v6.4h5.4v-6.4h3.6v2.9h2.9v1.1h1.1v-1.1h2.5v1c-6.4 9.2-16.9 15.3-28.9 15.3z" fill="#ee3e38" data-fill-palette-color="accent"/></svg>
                        </svg>
                    </svg>
                </svg>
                <rect width="395.52" height="109" fill="none" visibility="hidden" />
            </g>
        </svg>
    </g>
</svg>